<?xml version="1.0" encoding="utf-8"?>
<!-- Generator: Adobe Illustrator 25.2.1, SVG Export Plug-In . SVG Version: 6.00 Build 0)  -->
<svg version="1.1" id="Camada_1" xmlns="http://www.w3.org/2000/svg" xmlns:xlink="http://www.w3.org/1999/xlink" x="0px" y="0px"
	 viewBox="0 0 1920.2 1054.9" style="enable-background:new 0 0 1920.2 1054.9;" xml:space="preserve">
<style type="text/css">
	.st0{opacity:0.11;fill:url(#Path_195_1_);enable-background:new    ;}
	.st1{fill:url(#Path_194_1_);}
</style>
<g id="Group_111" transform="translate(0.13 -6328.591)">
	
		<linearGradient id="Path_195_1_" gradientUnits="userSpaceOnUse" x1="943.8784" y1="6871.0752" x2="943.8784" y2="6872.0752" gradientTransform="matrix(1920.193 0 0 -1054.854 -1811468.75 7255364.5)">
		<stop  offset="0" style="stop-color:#361CC1"/>
		<stop  offset="1" style="stop-color:#2E82EF"/>
	</linearGradient>
	<path id="Path_195" class="st0" d="M1920.1,7003.8c0,0-85.9-337.8-386.7-270.2c-300.8,67.5-439.4,0-538.3-145.2
		s-352-127-574.6-79.2s-302.4-21.5-420.6-180.6c0,0,0.1,1054.9,0.1,1054.9H1920L1920.1,7003.8z"/>
	
		<linearGradient id="Path_194_1_" gradientUnits="userSpaceOnUse" x1="943.8784" y1="6871.0752" x2="943.8784" y2="6872.0752" gradientTransform="matrix(1920.062 0 0 -1054.71 -1811345 7254375)">
		<stop  offset="0" style="stop-color:#FFD4BF"/>
		<stop  offset="7.695895e-02" style="stop-color:#DDB1AA"/>
		<stop  offset="0.1952" style="stop-color:#AE838E"/>
		<stop  offset="0.3175" style="stop-color:#875A76"/>
		<stop  offset="0.4422" style="stop-color:#663A62"/>
		<stop  offset="0.5701" style="stop-color:#4D2052"/>
		<stop  offset="0.7023" style="stop-color:#3B0E48"/>
		<stop  offset="0.8417" style="stop-color:#300341"/>
		<stop  offset="1" style="stop-color:#2D003F"/>
	</linearGradient>
	<path id="Path_194" class="st1" d="M1920,7003.9c0,0-86.3-291.5-385.9-226.4c-299.6,65.1-437.7,0-536.1-139.9
		c-98.5-139.9-348.5-144.6-576.5-88.3c-228,56.3-380-116.5-421.4-220.6c0.1,8,0,1054.7,0,1054.7h1920L1920,7003.9z"/>
</g>
</svg>
