<svg xmlns="http://www.w3.org/2000/svg" xmlns:xlink="http://www.w3.org/1999/xlink" width="533" height="533" viewBox="0 0 533 533">
  <defs>
    <radialGradient id="radial-gradient" cx="0.5" cy="0.5" r="0.5" gradientUnits="objectBoundingBox">
      <stop offset="0" stop-color="#f5e8ff"/>
      <stop offset="1" stop-color="#8154a7"/>
    </radialGradient>
  </defs>
  <g id="Grupo_32" data-name="Grupo 32" transform="translate(-2298 2180)">
    <path id="Caminho_14" data-name="Caminho 14" d="M-5.2-31.878,19.288-.693H-1.04L-17.9-22.176A84.8,84.8,0,0,1-62.717-9.7q-37.653,0-63.178-25.063T-151.421-96.1q0-37.191,24.717-62.485t62.6-25.295A87.177,87.177,0,0,1-20.1-172.326a84.125,84.125,0,0,1,31.762,31.647,86.55,86.55,0,0,1,11.55,43.89Q23.215-58.674-5.2-31.878ZM-15.361-44.814Q6.121-66.066,6.121-96.327t-20.79-50.82q-20.79-20.559-49.665-20.559t-49.318,20.79Q-134.1-126.126-134.1-95.98t20.79,50.127q20.79,19.981,49.434,19.981A69.918,69.918,0,0,0-28.3-35.343l-36.96-46.893h20.1Zm78.771-82.929H47.47q1.155-25.41,16.863-40.771t38-15.362q22.292,0,36.96,14.438a47.549,47.549,0,0,1,14.669,35.228,53.164,53.164,0,0,1-8.2,28.644q-8.2,13.167-24.832,31.185L79.579-29.8h76.692V-13.86H43.543l63.294-68.376q16.632-18.018,23.793-28.413a40.928,40.928,0,0,0,7.161-23.793q0-13.4-10.511-23.562t-26.1-10.164q-15.592,0-25.872,10.51T63.409-127.743Z" transform="translate(2562.42 -1821.124)" fill="url(#radial-gradient)"/>
    <g id="Retângulo_33" data-name="Retângulo 33" transform="translate(2307 -2171)" fill="none" stroke="#f27c7c" stroke-width="49" stroke-dasharray="3 5">
      <rect width="515" height="515" rx="257.5" stroke="none"/>
      <rect x="24.5" y="24.5" width="466" height="466" rx="233" fill="none"/>
    </g>
    <g id="Retângulo_35" data-name="Retângulo 35" transform="translate(2307 -2171)" fill="none" stroke="#f5e8ff" stroke-width="49" stroke-dasharray="3 5">
      <rect width="515" height="515" rx="249" stroke="none"/>
      <rect x="24.5" y="24.5" width="466" height="466" rx="224.5" fill="none"/>
    </g>
    <g id="Retângulo_34" data-name="Retângulo 34" transform="translate(2298 -2180)" fill="none" stroke="#8154a7" stroke-width="49" stroke-dasharray="3 5">
      <rect width="533" height="533" rx="266.5" stroke="none"/>
      <rect x="24.5" y="24.5" width="484" height="484" rx="242" fill="none"/>
    </g>
  </g>
</svg>
